<svg width="17.000000" height="21.000000" viewBox="0 0 17 21" fill="none" xmlns="http://www.w3.org/2000/svg" xmlns:xlink="http://www.w3.org/1999/xlink">
	<desc>
			Created with Pixso.
	</desc>
	<defs/>
	<path id="Combined Shape" d="M16.74 17.11C16.74 20.59 11.96 21 8.37 21L8.11 20.99C5.82 20.99 0 20.84 0 17.09C0 13.68 4.58 13.22 8.14 13.2L8.62 13.2C10.91 13.21 16.74 13.35 16.74 17.11ZM8.37 14.79C3.86 14.79 1.58 15.56 1.58 17.09C1.58 18.63 3.86 19.41 8.37 19.41C12.87 19.41 15.15 18.64 15.15 17.11C15.15 15.57 12.87 14.79 8.37 14.79ZM8.37 0C11.46 0 13.98 2.51 13.98 5.61C13.98 8.7 11.46 11.22 8.37 11.22L8.33 11.22C5.24 11.21 2.74 8.69 2.75 5.6C2.75 2.51 5.27 0 8.37 0ZM8.37 1.5C6.1 1.5 4.26 3.34 4.26 5.61C4.25 7.86 6.08 9.7 8.34 9.71L8.37 10.46L8.37 9.71C10.63 9.71 12.47 7.87 12.47 5.61C12.47 3.34 10.63 1.5 8.37 1.5Z" fill="#000000" fill-opacity="1.000000" fill-rule="evenodd"/>
</svg>
